<svg xmlns="http://www.w3.org/2000/svg" xmlns:xlink="http://www.w3.org/1999/xlink" viewBox="0 0 3710 3710"><defs><style>.cls-1{fill:url(#linear-gradient);}.cls-2{fill:url(#linear-gradient-2);}.cls-3{fill:none;}.cls-4{isolation:isolate;}.cls-5{clip-path:url(#clip-path);}.cls-6{mix-blend-mode:soft-light;}.cls-7{fill:#fff;}.cls-8{clip-path:url(#clip-path-2);}.cls-9{fill:url(#linear-gradient-5);}.cls-10{clip-path:url(#clip-path-3);}.cls-11{fill:#d8dee8;}.cls-12{fill:#97a6b7;}.cls-12,.cls-19,.cls-25,.cls-33,.cls-42{opacity:0.3;}.cls-12,.cls-19,.cls-22,.cls-25,.cls-33,.cls-42,.cls-49{mix-blend-mode:multiply;}.cls-13{fill:url(#linear-gradient-6);}.cls-14{fill:url(#linear-gradient-7);}.cls-15{fill:url(#linear-gradient-8);}.cls-16{fill:url(#linear-gradient-9);}.cls-17{fill:url(#linear-gradient-10);}.cls-18{fill:url(#linear-gradient-11);}.cls-19{fill:url(#linear-gradient-12);}.cls-20{fill:url(#linear-gradient-13);}.cls-21{fill:url(#linear-gradient-14);}.cls-22{opacity:0.4;fill:url(#linear-gradient-15);}.cls-23{fill:url(#linear-gradient-16);}.cls-24{fill:url(#linear-gradient-17);}.cls-25{fill:url(#linear-gradient-18);}.cls-26{fill:url(#linear-gradient-19);}.cls-27{fill:url(#linear-gradient-20);}.cls-28{fill:url(#linear-gradient-21);}.cls-29{fill:url(#linear-gradient-22);}.cls-30{fill:url(#linear-gradient-23);}.cls-31{fill:url(#linear-gradient-24);}.cls-32{fill:url(#linear-gradient-25);}.cls-33{fill:url(#linear-gradient-26);}.cls-34{fill:url(#linear-gradient-27);}.cls-35{fill:url(#linear-gradient-28);}.cls-36{fill:url(#linear-gradient-29);}.cls-37{fill:url(#linear-gradient-30);}.cls-38{fill:url(#linear-gradient-31);}.cls-39{fill:url(#linear-gradient-32);}.cls-40{fill:url(#linear-gradient-33);}.cls-41{fill:url(#linear-gradient-34);}.cls-42{fill:url(#linear-gradient-35);}.cls-43{fill:url(#linear-gradient-36);}.cls-44{fill:url(#linear-gradient-37);}.cls-45{fill:url(#linear-gradient-38);}.cls-46{fill:url(#linear-gradient-39);}.cls-47{fill:#f4f7fa;}.cls-48{fill:url(#linear-gradient-40);}.cls-49{opacity:0.2;}.cls-50{fill:url(#linear-gradient-41);}.cls-51{fill:url(#linear-gradient-42);}.cls-52{fill:url(#linear-gradient-43);}.cls-53{fill:url(#linear-gradient-44);}.cls-54{fill:url(#linear-gradient-45);}.cls-55{fill:url(#linear-gradient-46);}.cls-56{fill:url(#linear-gradient-47);}.cls-57{fill:url(#linear-gradient-48);}.cls-58{fill:url(#linear-gradient-49);}.cls-59{fill:url(#linear-gradient-50);}.cls-60{fill:url(#linear-gradient-51);}.cls-61{fill:url(#linear-gradient-52);}.cls-62{fill:url(#linear-gradient-53);}</style><linearGradient id="linear-gradient" x1="6079.61" y1="12969.81" x2="7479.76" y2="16010.54" gradientUnits="userSpaceOnUse"><stop offset="0" stop-color="#e38ddd"/><stop offset="1" stop-color="#9571f6"/></linearGradient><linearGradient id="linear-gradient-2" x1="5401.75" y1="8228.92" x2="6200.47" y2="9963.51" gradientUnits="userSpaceOnUse"><stop offset="0" stop-color="#ff9085"/><stop offset="1" stop-color="#fb6fbb"/></linearGradient><clipPath id="clip-path"><path class="cls-1" d="M1572.65,3010.29c53.67-84.85,122.61-223.65,102.25-382.47-35.51-277.09-302.83-303.24-428.11-637-101-269.18,19.56-394.16-128.44-607.26-24.77-35.67-153.68-228.82-316.49-214.2-91.74,8.24-153.52,78.69-165.12,91.92-175.29,199.89-92.47,664,145.71,961,136.85,170.63,207.27,163.57,472.1,407.09C1410.17,2772.43,1512.12,2915.05,1572.65,3010.29Z"/></clipPath><clipPath id="clip-path-2"><path class="cls-2" d="M2127.85,2871.17c-52.78-72.61-120.57-191.4-100.58-327.34,34.87-237.16,297.66-259.58,420.76-545.26,99.29-230.41-19.28-337.36,126.18-519.77,24.34-30.53,151-195.87,311.1-183.38,90.19,7,150.94,67.33,162.34,78.65,172.36,171.06,91,568.28-143.09,822.5-134.51,146.07-203.74,140-464,348.5C2287.55,2667.57,2187.34,2789.65,2127.85,2871.17Z"/></clipPath><linearGradient id="linear-gradient-5" x1="2455.89" y1="1333.68" x2="1144.43" y2="2410.95" gradientTransform="matrix(-1, 0, 0, 1, 3076.71, 949.97)" gradientUnits="userSpaceOnUse"><stop offset="0" stop-color="#ffc444"/><stop offset="1" stop-color="#f36f56"/></linearGradient><clipPath id="clip-path-3"><circle class="cls-3" cx="1763.31" cy="2037.59" r="979.88" transform="translate(-924.33 1843.65) rotate(-45)"/></clipPath><linearGradient id="linear-gradient-6" x1="-1379.22" y1="447.11" x2="-553.19" y2="1008.18" gradientTransform="matrix(-1, 0, 0, 1, 210.71, 0)" gradientUnits="userSpaceOnUse"><stop offset="0" stop-color="#311944"/><stop offset="1" stop-color="#6b3976"/></linearGradient><linearGradient id="linear-gradient-7" x1="1476.19" y1="895.34" x2="1858.87" y2="895.34" gradientTransform="matrix(1, 0, 0, 1, 0, 0)" xlink:href="#linear-gradient-5"/><linearGradient id="linear-gradient-8" x1="-1494.9" y1="811.94" x2="-1373.5" y2="811.94" gradientTransform="matrix(-0.83, -0.56, -0.56, 0.83, 1146.76, 279.31)" xlink:href="#linear-gradient-6"/><linearGradient id="linear-gradient-9" x1="-1726.82" y1="1539.52" x2="-1658.79" y2="1539.52" xlink:href="#linear-gradient-6"/><linearGradient id="linear-gradient-10" x1="-1629.36" y1="1164.83" x2="-1546.5" y2="1643.87" gradientTransform="matrix(-1, 0, 0, 1, 210.71, 0)" gradientUnits="userSpaceOnUse"><stop offset="0" stop-color="#ab316d"/><stop offset="1" stop-color="#792d3d"/></linearGradient><linearGradient id="linear-gradient-11" x1="-1512.34" y1="1732.57" x2="-1394.52" y2="1359.69" xlink:href="#linear-gradient-10"/><linearGradient id="linear-gradient-12" x1="-1512.33" y1="1732.57" x2="-1394.51" y2="1359.69" xlink:href="#linear-gradient-10"/><linearGradient id="linear-gradient-13" x1="-1346.55" y1="1116.48" x2="-1263.88" y2="1594.42" xlink:href="#linear-gradient-10"/><linearGradient id="linear-gradient-14" x1="1208.86" y1="998.57" x2="1655.65" y2="998.57" gradientTransform="matrix(1, 0, 0, 1, 0, 0)" xlink:href="#linear-gradient-5"/><linearGradient id="linear-gradient-15" x1="1228.43" y1="1101.1" x2="1675.22" y2="1101.1" gradientTransform="translate(-19.57)" xlink:href="#linear-gradient-5"/><linearGradient id="linear-gradient-16" x1="21.88" y1="1110.24" x2="342.83" y2="1110.24" gradientTransform="matrix(-1, 0, 0, 1, 1720.71, 0)" gradientUnits="userSpaceOnUse"><stop offset="0" stop-color="#40447e"/><stop offset="1" stop-color="#3c3b6b"/></linearGradient><linearGradient id="linear-gradient-17" x1="-183.37" y1="907.78" x2="27.05" y2="1116.52" xlink:href="#linear-gradient-16"/><linearGradient id="linear-gradient-18" x1="-183.37" y1="907.78" x2="27.06" y2="1116.52" xlink:href="#linear-gradient-16"/><linearGradient id="linear-gradient-19" x1="1102.85" y1="517.27" x2="1386.33" y2="1382.01" gradientTransform="matrix(1, 0, 0, 1, 0, 0)" xlink:href="#linear-gradient-5"/><linearGradient id="linear-gradient-20" x1="3600.41" y1="2451.6" x2="3659.51" y2="2376.77" gradientTransform="matrix(-1, 0, 0, 1, 5903.66, 0)" gradientUnits="userSpaceOnUse"><stop offset="0" stop-color="#aa80f9"/><stop offset="1" stop-color="#6165d7"/></linearGradient><linearGradient id="linear-gradient-21" x1="-480.4" y1="3826.41" x2="-383.18" y2="3826.41" gradientTransform="translate(3586.64 -232.65) rotate(21.65)" gradientUnits="userSpaceOnUse"><stop offset="0" stop-color="#444b8c"/><stop offset="1" stop-color="#26264f"/></linearGradient><linearGradient id="linear-gradient-22" x1="-688.72" y1="3704.25" x2="-647.72" y2="3619.4" gradientTransform="translate(3566.53 -152.09) rotate(17.7)" xlink:href="#linear-gradient-5"/><linearGradient id="linear-gradient-23" x1="-328.09" y1="3820.15" x2="-230.88" y2="3820.15" xlink:href="#linear-gradient-21"/><linearGradient id="linear-gradient-24" x1="-536.35" y1="3708.51" x2="-495.36" y2="3623.67" gradientTransform="translate(3566.53 -152.09) rotate(17.7)" xlink:href="#linear-gradient-5"/><linearGradient id="linear-gradient-25" x1="3269.84" y1="2808.95" x2="3512.38" y2="2501.84" xlink:href="#linear-gradient-20"/><linearGradient id="linear-gradient-26" x1="3269.87" y1="2799.36" x2="3504.47" y2="2502.31" xlink:href="#linear-gradient-20"/><linearGradient id="linear-gradient-27" x1="3135.57" y1="2677.54" x2="3376.47" y2="2372.51" xlink:href="#linear-gradient-20"/><linearGradient id="linear-gradient-28" x1="3149.4" y1="3191.47" x2="3476.02" y2="2777.89" gradientTransform="matrix(-0.99, -0.11, -0.11, 0.99, 5732.5, 314.91)" xlink:href="#linear-gradient-21"/><linearGradient id="linear-gradient-29" x1="3343.89" y1="2809.49" x2="2964.95" y2="3229.24" gradientTransform="matrix(-0.99, -0.11, -0.11, 0.99, 5732.5, 314.91)" xlink:href="#linear-gradient-21"/><linearGradient id="linear-gradient-30" x1="3625.87" y1="2880" x2="3572.67" y2="2729.26" gradientTransform="matrix(-1, 0, 0, 1, 5903.66, 0)" gradientUnits="userSpaceOnUse"><stop offset="0" stop-color="#311944"/><stop offset="1" stop-color="#893976"/></linearGradient><linearGradient id="linear-gradient-31" x1="3393.45" y1="2661.6" x2="3412.96" y2="2796.38" xlink:href="#linear-gradient-30"/><linearGradient id="linear-gradient-32" x1="2405.81" y1="2691.13" x2="2516.07" y2="2691.13" gradientTransform="matrix(1, 0, 0, 1, 0, 0)" xlink:href="#linear-gradient-5"/><linearGradient id="linear-gradient-33" x1="3779.99" y1="2673.41" x2="3676.26" y2="2526.11" gradientTransform="matrix(-1, 0, 0, 1, 5903.66, 0)" xlink:href="#linear-gradient-21"/><linearGradient id="linear-gradient-34" x1="3581.02" y1="2917.17" x2="3808.02" y2="2456.08" xlink:href="#linear-gradient-30"/><linearGradient id="linear-gradient-35" x1="3470.13" y1="2621.23" x2="3968.82" y2="2621.23" xlink:href="#linear-gradient-30"/><linearGradient id="linear-gradient-36" x1="2326.01" y1="2226.74" x2="2640.33" y2="2226.74" gradientTransform="matrix(1, 0, 0, 1, 0, 0)" xlink:href="#linear-gradient-5"/><linearGradient id="linear-gradient-37" x1="-1311.48" y1="1619.82" x2="-1430.14" y2="1318.46" gradientTransform="matrix(0.97, -0.25, 0.25, 0.97, 3447.47, 427.31)" xlink:href="#linear-gradient-21"/><linearGradient id="linear-gradient-38" x1="2354.59" y1="2187.57" x2="2507.98" y2="2187.57" gradientTransform="matrix(1, 0, 0, 1, 0, 0)" xlink:href="#linear-gradient-5"/><linearGradient id="linear-gradient-39" x1="-1347.73" y1="1634.25" x2="-1466.51" y2="1332.59" gradientTransform="matrix(0.97, -0.25, 0.25, 0.97, 3447.47, 427.31)" xlink:href="#linear-gradient-21"/><linearGradient id="linear-gradient-40" x1="2469.46" y1="867.33" x2="2719.72" y2="1511.91" gradientTransform="matrix(1, 0, 0, 1, 0, 0)" xlink:href="#linear-gradient-20"/><linearGradient id="linear-gradient-41" x1="2379.86" y1="902.11" x2="2630.11" y2="1546.7" gradientTransform="matrix(1, 0, 0, 1, 0, 0)" xlink:href="#linear-gradient-20"/><linearGradient id="linear-gradient-42" x1="2566.65" y1="1361.78" x2="2404.12" y2="1608.48" gradientTransform="translate(1765.51 -1341.03) rotate(45)" xlink:href="#linear-gradient-20"/><linearGradient id="linear-gradient-43" x1="1422.46" y1="1697.62" x2="1672.71" y2="2342.2" xlink:href="#linear-gradient-2"/><linearGradient id="linear-gradient-44" x1="1332.85" y1="1732.4" x2="1583.11" y2="2376.99" xlink:href="#linear-gradient-2"/><linearGradient id="linear-gradient-45" x1="1519.65" y1="2192.07" x2="1357.12" y2="2438.77" gradientTransform="translate(3590.97 617.75) rotate(84.35)" xlink:href="#linear-gradient-2"/><linearGradient id="linear-gradient-46" x1="2079.34" y1="2340.3" x2="2129.35" y2="2340.3" gradientTransform="translate(2988.8 -680.13) rotate(58.28)" xlink:href="#linear-gradient-20"/><linearGradient id="linear-gradient-47" x1="1961.63" y1="2171.42" x2="2247.06" y2="2171.42" gradientTransform="matrix(1, 0, 0, 1, 0, 0)" xlink:href="#linear-gradient-20"/><linearGradient id="linear-gradient-48" x1="2002.93" y1="2220.88" x2="2205.76" y2="2220.88" gradientTransform="matrix(1, 0, 0, 1, 0, 0)" xlink:href="#linear-gradient-20"/><linearGradient id="linear-gradient-49" x1="2044.53" y1="2270.89" x2="2164.16" y2="2270.89" gradientTransform="matrix(1, 0, 0, 1, 0, 0)" xlink:href="#linear-gradient-20"/><linearGradient id="linear-gradient-50" x1="1752.99" y1="146.25" x2="1929.86" y2="1652.32" gradientTransform="matrix(1, 0, 0, 1, 0, 0)" xlink:href="#linear-gradient-20"/><linearGradient id="linear-gradient-51" x1="1769.88" y1="144.27" x2="1946.75" y2="1650.34" gradientTransform="matrix(1, 0, 0, 1, 0, 0)" xlink:href="#linear-gradient-20"/><linearGradient id="linear-gradient-52" x1="1765.1" y1="144.83" x2="1941.97" y2="1650.9" gradientTransform="matrix(1, 0, 0, 1, 0, 0)" xlink:href="#linear-gradient-20"/><linearGradient id="linear-gradient-53" x1="1760.28" y1="145.39" x2="1937.15" y2="1651.47" gradientTransform="matrix(1, 0, 0, 1, 0, 0)" xlink:href="#linear-gradient-20"/></defs><title>background</title><g class="cls-4"><g id="Illustration"><path class="cls-1" d="M1572.65,3010.29c53.67-84.85,122.61-223.65,102.25-382.47-35.51-277.09-302.83-303.24-428.11-637-101-269.18,19.56-394.16-128.44-607.26-24.77-35.67-153.68-228.82-316.49-214.2-91.74,8.24-153.52,78.69-165.12,91.92-175.29,199.89-92.47,664,145.71,961,136.85,170.63,207.27,163.57,472.1,407.09C1410.17,2772.43,1512.12,2915.05,1572.65,3010.29Z"/><g class="cls-5"><g class="cls-6"><path class="cls-7" d="M1556.75,3132.05l-4.17-.82c46.61-236.1,22.73-418-71-540.53-45.73-59.82-91.56-85.63-140.08-112.95-52.94-29.82-107.69-60.65-164.27-138.8-55.07-76-63.35-130.21-73.83-198.79-9.33-61-20.94-136.91-70.21-252.29-43.2-101.14-82.41-156.54-117-205.41-37.83-53.45-67.72-95.66-88.66-177.14-34.14-132.77-19.77-278.31,42.72-432.58l4,1.6c-62.14,153.41-76.45,298.05-42.55,429.92,20.75,80.72,50.44,122.65,88,175.74,34.72,49,74.07,104.64,117.45,206.2,49.48,115.88,61.13,192.08,70.49,253.32,10.4,68,18.62,121.73,73.07,196.94,56,77.39,110.38,108,162.92,137.58,48.91,27.54,95.1,53.56,141.37,114.07C1579.47,2711.7,1603.62,2894.7,1556.75,3132.05Z"/><path class="cls-7" d="M934.89,1705.65l-2.66-1c-170.2-66-268.21-182.27-320.45-268.23-56.62-93.15-73.22-171.8-73.38-172.59l4.17-.86c.16.78,16.65,78.84,72.93,171.38,51.64,84.91,148.25,199.64,315.64,265.31,3.27-33.47,38.4-350.78,196.83-425.88l1.82,3.85c-164.25,77.86-194.39,421.75-194.67,425.21Z"/><path class="cls-7" d="M1077.59,2012.71c-13.08,0-101.48-1.39-213.4-36.53-111.45-35-269.76-111.56-391-277.64l3.43-2.51c120.51,165.09,277.88,241.24,388.67,276s198.46,36.36,212,36.38c24-176.72,157-384.31,158.3-386.39l3.58,2.31c-1.34,2.08-134.75,210.31-157.91,386.47l-.24,1.82-1.83,0Z"/><path class="cls-7" d="M1173.29,2461c-98.63,0-249-17.16-423-95.24l1.74-3.89c291.81,130.94,516.61,89.94,541,84.88-56.74-198.18,92.12-420,93.64-422.22l3.52,2.39c-1.51,2.22-150.33,224-92.44,420.83l.64,2.15-2.19.52C1295.19,2450.66,1249.81,2461,1173.29,2461Z"/></g></g><path class="cls-2" d="M2127.85,2871.17c-52.78-72.61-120.57-191.4-100.58-327.34,34.87-237.16,297.66-259.58,420.76-545.26,99.29-230.41-19.28-337.36,126.18-519.77,24.34-30.53,151-195.87,311.1-183.38,90.19,7,150.94,67.33,162.34,78.65,172.36,171.06,91,568.28-143.09,822.5-134.51,146.07-203.74,140-464,348.5C2287.55,2667.57,2187.34,2789.65,2127.85,2871.17Z"/><g class="cls-8"><g class="cls-6"><path class="cls-7" d="M2143.49,2975.39l4.11-.71c-45.87-202.07-22.42-357.72,69.7-462.65,44.95-51.2,90-73.3,137.7-96.69,52-25.52,105.85-51.92,161.47-118.82,54.12-65.09,62.25-111.45,72.55-170.15,9.16-52.21,20.55-117.18,69-215.94,42.45-86.58,81-134,115-175.83,37.18-45.75,66.55-81.89,87.13-151.63,33.54-113.64,19.39-238.21-42.07-370.24l-3.87,1.37c61.1,131.3,75.2,255.1,41.89,368-20.39,69.09-49.57,105-86.5,150.43-34.13,42-72.81,89.57-115.43,176.51-48.63,99.18-60.07,164.41-69.27,216.82-10.21,58.21-18.28,104.19-71.8,168.57-55.09,66.25-108.49,92.44-160.14,117.78-48.08,23.58-93.49,45.85-139,97.65C2121.1,2615.61,2097.39,2772.25,2143.49,2975.39Z"/><path class="cls-7" d="M2754.62,1754.45l2.61-.88c167.31-56.48,263.64-156,315-229.63,55.65-79.73,72-147,72.11-147.72l-4.1-.73c-.15.66-16.36,67.47-71.67,146.69-50.75,72.67-145.71,170.88-310.26,227.12-3.22-28.65-37.81-300.23-193.56-364.49l-1.8,3.3c161.49,66.62,191.17,361,191.45,363.91Z"/><path class="cls-7" d="M2614.38,2017.28c12.86,0,99.77-1.2,209.78-31.29,109.56-30,265.18-95.52,384.33-237.69l-3.38-2.14c-118.44,141.31-273.13,206.51-382.05,236.31s-195.1,31.15-208.44,31.16c-23.59-151.25-154.37-328.9-155.69-330.69l-3.52,2c1.32,1.78,132.5,180,155.3,330.76l.24,1.56,1.8,0Z"/><path class="cls-7" d="M2520.37,2401c97,0,244.81-14.73,415.87-81.58l-1.72-3.32c-286.85,112.1-507.86,77-531.87,72.72,55.75-169.63-90.63-359.47-92.12-361.37l-3.46,2c1.48,1.9,147.82,191.74,90.94,360.17l-.63,1.84,2.15.44C2400.53,2392.15,2445.14,2401,2520.37,2401Z"/></g></g><path class="cls-9" d="M1563.68,2968.17a967.9,967.9,0,0,0-187.36-197.76c-162.39-128.59-260.25-118.86-311.79-223.68-53.35-108.49,26.29-170.22-39.81-293.6-5.56-10.37-77.38-140.35-183.54-137.34C766.91,2117.9,715.71,2184,691.69,2215c-93.23,120.3-137,337.18-26.58,489.22,104.65,144.14,294.93,157.46,355.47,161.29,106.22,6.73,142.19-23.29,249.16-13.5C1399.83,2863.87,1500.45,2922.33,1563.68,2968.17Z"/><g class="cls-10"><path class="cls-11" d="M2755.19,2038.43c0,210-66,404.76-177.76,565.09-.44.66-2,1.29-2,1.95v0c-175.44,257.06-476.07,423.61-813.3,423.61-27.58,0-54-1.29-81-5h0c-.11,0-.16,1.64-.27,1.64-13.3-1.1-26.49-1.61-39.62-3.23-4.67-.55-9.34-.74-14-1.39-4.12-.55-8.22-.92-12.31-1.55-3.57-.53-7.12-1-10.63-1.55-.8-.14-1.6-.22-2.39-.33-8.66-1.43-17.28-2.91-25.88-4.56l-.14,0c-458.5-87.58-804.93-490.66-804.93-974.68,0-102.34,14.86-201.07,43.66-294,4.5-14.56,10.11-29,13.85-43.21v0c11.19-23.76,18.7-47.09,29-70,4.15-9.15,8.74-18.25,13.11-27.26a992.4,992.4,0,0,1,84.17-141.18c2.89-4,5.88-8,8.82-12.06q17.64-24,36.75-46.84,28.56-34.29,60.07-65.91a996,996,0,0,1,181.86-144.23q30.69-19,62.89-35.77a987.35,987.35,0,0,1,458.23-111.93c236.24,0,453.19,82.53,623.58,220.33,125.33,101.38,227.26,232.62,291.39,382.92,14.34,33.58,24,68.08,39,103.41v0c0,.17-1.71.28-1.65.44C2742.69,1843.53,2755.19,1939.28,2755.19,2038.43Z"/><g class="cls-6"><path class="cls-7" d="M1681.07,3027.43v0h.08l-.05,0Z"/><path class="cls-7" d="M1979.51,2373c-21.29,30-87.17,68.52-42.47,144.18,44.31,75.47-3.08,89.62-33.57,82.56s-125.86-10.88-110,32.39,43.11,59.56,8.22,76.29-49.62,60.14-85.31,120c-35.44,60-119.67,8.11-94.72,68.22s44.31,54.31,42,96.21c-.55,11.51,7.09,23.33,17.42,34.56-13.29-1.1-26.65-2.44-39.89-4.06-4.67-.55-9.34-1.16-14-1.82-4.12-.55-8.22-1.12-12.31-1.76q-5.36-.78-10.63-1.64c-.8-.14-.59-.28-1.39-.39-8.52-1.43-12.94-3-24.14-4.59v0c-7.46-7.09-2.78-14.78-1.66-23.08,11.13-77.37-95.61-130.53-113.5-184.73-17.58-54.07-.22-86.32-4.29-131.13s10.46-104-15.28-141.73-129.52-50.14-149.27-125.94c-19.89-75.63,26.37-188.9,44.33-208.19,17.75-19.29-85.92-107-135.26-109.84-49.56-3-29.74-102.8-113.53-87.61-84,14.73-234.79-32.12-203.63-82.5,25.71-41.51,68.87-133.08-72-173.91,4.5-14.56,10.08-29,13.82-43.21v0c11.19-23.76,18.7-47.09,29-70,4.15-9.15,8.74-18.25,13.11-27.26a998,998,0,0,1,84.17-141.18c2.89-4,5.88-8,8.82-12.06q17.69-24,36.75-46.84,28.56-34.29,60.07-65.91a996,996,0,0,1,181.86-144.23c27.91,19.56,59.78,31.62,87.31,16.75,67.5-37.77,23-43.57-4.64-45a35.67,35.67,0,0,1-19.78-7.55,982.58,982.58,0,0,1,163.25-67.34c-4.21,38.1-56,99.31-17.89,91.84,44.34-8.43,62.45-128.24,95-88.43,33,40-36.13,92.36,28.81,62,65-30,73.71-97.14,146.19-64.5,72.83,33,66.18,72.17,86.51,68.29s85.75,40.2,46.13,76.41c-40,36.32-76.62-10-136.54-23.9-60-13.8-58.49,35.24-86.08,46.45-28,10.83-163.35-54.56-196.57,4.54-33.57,58.62-47.85,99.53,2,98s53-14.29,49.1,22.53,5.08,64.42,50.19,29.78,34.89-68.33,70.06-51.84,39.34,1.56,76.76-25.61,86.59-30,99.48,31-9.15,74.68-74.92,77.75-73.25-17.55-94.21,37.45-107.89,125.69-184.29,154.81-106.15,72.28-104.39,130.44-26.87,119.73-46,71.71-73.14-129.27-128.14-75.06-151,150.33-45,167.89c105.78,17.88,50.58-81.21,104-61.4s-33.82,63.62,1.86,79.39,50.72,8.46,50.44,57.17,11.85,96,55.23,75.31,98.93-93.46,161.65-37,58.46,26.67,91.4,10.18,53.87,32.89,67.36,55.36,66.41-.46,109.29,66.4,59.67,78.8,108.55,54.73,68.79-6.18,81.54,27.58,42.8.77,57.31,45.39S2000.67,2343,1979.51,2373Z"/><path class="cls-7" d="M2146.88,1562.84c-34.65-74.34,137-66,167.34-60.28,30.52,5.09,102.11-50.88,111.21-76.89,9.34-26.21,24.67-13.77,79-14.51,54.29-.58,6.32-12.86-53.43-32.56s-8.66-21.62-63.63-65c-23.65-19-16.21-35.17-.44-47.18a995.54,995.54,0,0,1,289.59,382.92,18.82,18.82,0,0,0-5.11-.87c-38-.22-46.4-84.29-66-100.67-19.31-16.34.55,46.19,5.28,71.87s-10.41,4.1-29.37,27.7-53.41,24.06-56.51-11.38-28.08-70.08-78.66-86.24-94.34-2.88-135.44,13C2269.82,1578.28,2181.77,1636.6,2146.88,1562.84Z"/><path class="cls-7" d="M2577.82,2605.47c3.44-25.52,9-51.9-1.62-61.54-25.91-24-31.57-89.53-22.58-122.72s78.76-31.38,31.4-86.62c-47.5-55.42-90.3-121.19-70.36-158.8s13.9-40.3-23.49-40.08-53.85,1.87-91.13-31.43c-37.31-33.74-88.63,79.62-229-11.29-140.39-91.82-60.44-246.57-7.83-247,52.94-.88,114.78-27.61,71.4-92.17-43.24-64.81,24.34-74,57.37-59.23,33.07,14.56,91.73-24.56,151.51-42.2s57.28,80.06,90.55,99.59c33.46,19.56,96.16,4,128.74-27.23,23.27-22.31,28.35,3.71,51.35,28.41a991.45,991.45,0,0,1,41.62,285.23C2755.71,2249.25,2690,2444.75,2577.82,2605.47Z"/><path class="cls-7" d="M2326.68,1439.1c0-.06,43.78-19.81,27.92-51.63-15.71-31.82-40.63-129.36-58.84-98.62s8.69,90.82,2.79,116.69S2292.44,1445.06,2326.68,1439.1Z"/><path class="cls-7" d="M2283,1409.33c-.61-10.26,5.84-51.9-26.93-50.59.07-.07-47.39,19.73-19.63,53.38S2283.7,1419.55,2283,1409.33Z"/></g><path class="cls-12" d="M2752.55,2036.69c0,210-64.63,404.76-176.44,565.09a3.52,3.52,0,0,0-.7,1.95v0c-179.18,257.07-477.39,422.83-814.62,422.83a604.47,604.47,0,0,1-82.33-5.83h0c-.11,0-.16,2.45-.27,2.45-13.3-1.1-26.48-1.23-39.62-2.85-4.67-.55-9.34-.54-14-1.19-4.12-.55-8.21-.82-12.31-1.45-3.57-.52-7.11-.91-10.63-1.48-.8-.14-1.59-.21-2.39-.32-8.65-1.43-17.28-2.9-25.88-4.55h-.14c-424-81-752.13-432-799.13-867.11,99.42,285.2,345.28,499.49,647.54,559.21h.11c7.41,3.73,14.86,3,22.33,4.22.69.08,1.4.32,2.09.43,3,.5,6.1,1,9.18,1.44,3.51.55,7.06,1,10.63,1.46,4,.58,8,.92,12.06,1.39,11.35,1.4,22.72,4,34.2,4.92.11,0,.17,1.07.25,1.07h0c23.32,0,46.57,1.88,70.38,1.88,145.61,0,282.84-37,402.9-100.89a853.29,853.29,0,0,0,299.87-267c0-.57.93-1.34,1.29-1.92A856.79,856.79,0,0,0,2404,1616.05c0-.14-.34-.3-.34-.44v0c-7.47-30.49-19.49-60.3-31.86-89.29A858.27,858.27,0,0,0,1853,1048.59a987.46,987.46,0,0,1,531.28,216.08C2509.6,1366,2611,1497.28,2675.11,1647.59c14.34,33.57,23.49,68.08,38.42,103.41v0c0,.17-1.16.28-1.11.44C2739.51,1841.79,2752.55,1937.54,2752.55,2036.69Z"/></g><path class="cls-13" d="M1544.55,745.55c15.54-10.07,1.38-39.38.54-102.33-1-77.14,19.47-91.52,3-121.79-20.12-37-70.78-52.32-104.34-53-7.4-.16-9.13-4.2-71.14,11.86-111.72,28.93-139.69-2.09-189.72,28.9-48.34,29.93-27.17,62.71-74.11,97.82-76.09,56.9-156.09-4.62-210.47,43-51.43,45-52.62,159.73,1.48,222.33,61.33,71,171.92,49.64,246,35.57,15.6-3,94.37-19.5,176.38-80a469.66,469.66,0,0,0,96.34-95.61c4.65-5.23,11.91-11.57,21.49-12.59,11.51-1.23,20.75,5.8,25.2,8.89C1488.64,744.7,1529.28,755.45,1544.55,745.55Z"/><path class="cls-14" d="M1482.11,703.28c20-18.21,91.28,16.88,138.53,63.44,55.52,54.7,51.25,99.06,99.7,167,24.08,33.78,65.37,79.27,138.53,119.11q-7.77,19.41-15.53,38.84c-35.38,2.13-104.82.88-169.61-41.43-45-29.39-68.17-68.33-112.64-145C1516.45,828.29,1457.14,726,1482.11,703.28Z"/><path class="cls-15" d="M1918.49,1772.78l-22.72-48.27a41.81,41.81,0,0,0-14.56-16.93l-11.25-7.52s-26.89-.72-31.08,16.19c-.9,21.46,40.82,69.42,67.2,88.47,4.38,3.16,10.62,7.38,14.42,5.21C1926.93,1806.25,1922.42,1786.51,1918.49,1772.78Z"/><path class="cls-7" d="M1875.79,1673.81c-3.57,20.7,1,31.5,5.83,37.54,3.43,4.26,31.3,50.2,19.85,57.62-5.16,3.35-40.56-40.61-44-47.34-3.11-6.1-5.13-4.66-5.32-21.28a86.3,86.3,0,0,0-4.09-25.26Z"/><path class="cls-16" d="M1916,1509.72s25.15,30,21,62.9-48.13-15.2-54.27-31.45-13.31-39.41-13.31-39.41S1900.38,1482.55,1916,1509.72Z"/><path class="cls-7" d="M1906.44,1462.77s-6.82,35,6.19,53.41c6.48,9.19,15.22,17,12.65,24.46-1.72,5-8.27,8.61-13.81,8-10.6-1.09-16.48-17.36-20.63-28.83-6.13-16.94-9.54-53.19-9.54-53.19Z"/><path class="cls-17" d="M1886.39,1492.24l23.21-8.45c12.06-27.56,26.78-72.82,21.87-127.84-12.65-141.47-143.5-216.44-158-224.47-35.65,17.89-71.76,43.12-73.07,74.94-1.64,39.93,52.76,61,103.9,119.43C1835,1360.9,1867.76,1413.13,1886.39,1492.24Z"/><path class="cls-18" d="M1878.06,1690c25.55-99.82,19-181.27,11.65-228.19-11.14-70.92-33.8-215.18-130.12-269-21-11.75-51.1-22.26-87.74-54.92a310.87,310.87,0,0,1-61.8-76.17c-128.81-37.79-247.62-22.47-300,46.61-6,8-21.22,25.3-24.15,50.83-6.62,57.6,50,126.95,113.49,141.44,80.72,18.4,127.55-64.48,199.06-36.9,20,7.71,37,26.83,70.89,65.06a540.59,540.59,0,0,1,76.58,111.46c27.33,53.47,48.05,93,51.08,144.1.7,11.92,1.12,36,15.08,62,10.71,19.94,25.24,33.23,36,41.44Z"/><path class="cls-19" d="M1285.85,1159.17c2.93-25.53,18.1-42.85,24.15-50.83,52.43-69.08,171.24-84.4,300-46.61a311,311,0,0,0,61.79,76.17c36.65,32.66,66.72,43.17,87.75,54.92,58.82,32.85,90.14,99.42,108.17,162.44-26.75-41.49-49.66-52.51-67.38-52.71-25.37-.28-36.71,21.41-67,18.45-32.39-3.17-39.79-29.94-66-33-7.85-.92-17.52.3-29.13,6.48-15.49-16.23-27-25.83-39.81-30.75-71.51-27.58-118.34,55.3-199.06,36.9C1335.83,1286.12,1279.23,1216.77,1285.85,1159.17Z"/><path class="cls-20" d="M1811.32,1237.47a423,423,0,0,0-64.12,1.45c-128.52,12.7-164,76.28-270.18,91.79-25.13,3.67-137,20-185.47-44.67-34.79-46.43-29.52-126.45,8.53-157.92,16.1-13.31,32.05-12.94,135.19-12,38.84.35,77.68.48,116.52,1,164.41,2.1,195.86-9.29,225.77,17.9C1791.52,1147.67,1811.92,1174.92,1811.32,1237.47Z"/><path class="cls-21" d="M1464.22,710s-129.77-37.85-186.93,26.85c-10.49,11.88-18.79,27.5-24.82,57.65-30.77,153.66,85.59,246,39.75,327-18.21,32.19-50.27,41.89-73.06,99.74-3.85,9.79-17.81,45.22-5,56.38,11.27,9.83,29.81-10.93,62.76-6.92,34.88,4.25,43,31,66.5,27.14,15.3-2.54,21.9-15.61,44.44-48.18,32.64-47.15,49-70.73,60.66-79,46.15-32.62,81.82,9.92,134.46-22.38,19-11.69,89.65-102.6,68.88-77.63h0c-49.44-61.67-60.92-112.56-62.11-147.94-1.29-38.79,9.89-56.41,0-102.27,0,0-11-51.16-50.82-95.09C1533.22,719,1526.41,712.44,1464.22,710Z"/><path class="cls-7" d="M1411.8,605.08c2.65,12.39,16.14,78.87-11.06,96-5.89,3.71-17.22,5.84-39.88,10.08-14.83,2.78-27.28,4.49-36.06,5.54,1.27,11.14,5,29.29,17.89,45.79,36.06,46.27,108.37,34.3,118.68,32.42,36.38-6.62,70.43-16.64,79.07-23.51,13.16-10.46,12.81-6.51,18.94-14.49-9.32-10.78-15.06-26.31-33.19-34.66-13.2-6.07-43.57-16.47-55.74-18.71q-3-19.28-6-38.53Q1438.12,635,1411.8,605.08Z"/><path class="cls-7" d="M1412,633.21s4.91,48.72,52.27,57.31c42.4,7.68,74.32-94.78,52.62-121.29-7.24-8.84-25.11-17.25-40.6-16.8-10.89.31-47.69,14.33-52.83,51.15-7.33-7.72-16.46-9.94-21-6.71-5.71,4.1-2.65,16-2,18.73A34.26,34.26,0,0,0,1412,633.21Z"/><path class="cls-22" d="M1651.86,1070.61c-5.95-7.42-11.32-14.67-16.21-21.77a257.82,257.82,0,0,0-69.89-13.46c-42.92-2.08-66.43,8-95.64-9.57-33.17-19.95-27.3-47.66-59.3-63.12-33.69-16.28-57.5,2.12-89.91-3.83-19.57-3.58-43.41-16.67-67.73-54.85,18.63,91.92,72.8,157.75,39,217.45-18.21,32.19-50.27,41.89-73.06,99.74-3.85,9.79-17.81,45.22-5,56.38,11.27,9.83,29.81-10.93,62.76-6.92,34.88,4.25,43,31,66.5,27.14,15.3-2.54,21.9-15.61,44.44-48.18,32.64-47.15,49-70.73,60.66-79,46.15-32.62,81.82,9.92,134.46-22.38C1602,1136.55,1672.63,1045.64,1651.86,1070.61Z"/><path class="cls-23" d="M1691,1086.39l-293.64,14.29a12.31,12.31,0,0,0-9.87,5.79l-8.13,13a9.55,9.55,0,0,0,8.46,14.58l311-11.85Z"/><path class="cls-24" d="M1996.38,922.87,1693,928.74a25.49,25.49,0,0,0-21.64,12.87l-105.05,184.83,320.39-12.76a26.08,26.08,0,0,0,21.34-12.67l97.33-162.6A10.26,10.26,0,0,0,1996.38,922.87Z"/><path class="cls-25" d="M1671.38,941.61A25.49,25.49,0,0,1,1693,928.74l6.64-.12c1,9.79,4,18.75,10,26,18.71,22.58,49.79,8.65,72.95,32.55,25.45,26.24,1.94,57.49,24.69,81.92,24,25.71,62.67,4.78,107.18,21.23l-6.41,10.71a26.08,26.08,0,0,1-21.34,12.67l-320.39,12.76Z"/><path class="cls-26" d="M1421.25,1076.57q5.74-15.13,11.47-30.28c-42.24-11.58-100.66-28.69-160.58-50.1-9.39-3.35-20.54-7.51-24.19-17.38-10.25-27.7,54.89-56.41,80.22-116.9,23.41-55.94,10.52-133.57-16.66-142.74C1255,700.08,1054.39,949.73,1126,1055,1166.52,1114.47,1291.35,1123.94,1421.25,1076.57Z"/><path class="cls-7" d="M1432.72,1046.29c26.52-14.08,58.26.36,60.31,1.32A79,79,0,0,1,1515.9,1064c1,1.32,12.48,17.26,8.29,22.36-3.36,4.1-16.37.71-32-9a121.16,121.16,0,0,0-28-.68c-21.47,2-31.3,8.76-39.09,2.9-5.71-4.28-7.65-13.34-5.6-20.08C1421.71,1052.27,1428.23,1048.68,1432.72,1046.29Z"/><path class="cls-27" d="M2153.74,2571c-32.12-17.8-22.71-118.81,20.86-189.8,61.86-100.78,197.45-148.9,225.25-118.88,28.45,30.72-53.44,146-66.74,164.77C2284.85,2495.05,2191.73,2592.07,2153.74,2571Z"/><path class="cls-28" d="M1817.9,3157.32c5.23,7.23,5.26,19.51-.58,24.91s-12.92.06-34.72-1.68c-23.36-1.87-30,3-45.37-3.15-6.2-2.47-17-8-16.3-12.53.51-3.2,6.44-4.22,26.33-8.54,28.25-6.12,28.18-6.64,34.07-7C1796.13,3148.57,1811,3147.76,1817.9,3157.32Z"/><path class="cls-29" d="M1807.16,3117.71l-16,37.55c.66,2.18,11.76,10.43,22.43,7.15l21.49-35.78Z"/><path class="cls-30" d="M1961.76,3207.69c5.23,7.24,5.26,19.52-.58,24.92s-12.92.06-34.72-1.68c-23.35-1.87-30,3-45.37-3.15-6.2-2.47-17-8-16.3-12.54.51-3.19,6.44-4.21,26.33-8.53,28.25-6.12,28.18-6.63,34.07-7C1940,3199,1954.84,3198.14,1961.76,3207.69Z"/><path class="cls-31" d="M1951,3168.09l-16,37.55c.66,2.18,11.76,10.43,22.43,7.15L1979,3177Z"/><path class="cls-32" d="M2657.43,2268.86a509.63,509.63,0,0,0-164.34-27.44c-79,0-142.38,0-186.17,37.34-106.28,90.58,12.67,307.53-48.26,468.2-6.67,17.6-26.1,73.39-9.2,133.57,3.11,11.09,9.52,20.7,20.48,37,64.38,95.5,248.76,126.92,331.59,44.12,43.78-43.76,79.57-59.34,80.63-109.28C2686.31,2655.24,2655.73,2458.63,2657.43,2268.86Z"/><path class="cls-33" d="M2615.41,2509.65c15.06-41.21-.54-88.39,33-109,12.3-7.54,27.59-10.74,44.24-10.37-2,144.86-4.85,289.59-8.37,440.78-1.16,49.94-7.41,52.41-55.81,96.17-56.09,50.71-152.74,67.26-235.64,50.67,108.57-66.77,186-135.93,174.94-195.22-12.92-69-139.35-89.42-134.27-138.51C2438.92,2592.15,2582.51,2599.75,2615.41,2509.65Z"/><path class="cls-34" d="M2622.91,2273.32c36.49-24.64,124.44,37.5,173.18,92.2,22.66,25.43,101.55,113.94,81.95,232.85-3.19,19.37-17.9,110-95.45,154.34-69.44,39.74-163.2,29.52-238.32-26.76l-30.8-27.33-30.3-32.75a243.06,243.06,0,0,1,80.74-44.48c57.73-18.63,95.68,9,109.49-9.19,17-22.4-34.75-64.13-48.33-159.08C2621.4,2427.5,2582.13,2300.85,2622.91,2273.32Z"/><path class="cls-35" d="M2548.65,2914.3c15.38,80.66-25.52,44.06-111-10.44-90.05-57.39-290.76-147.68-390.16-69.31-74,58.36-38.23,167.48-154.16,270.47a337,337,0,0,1-50.9,37.3l-53.33-29.27c-2.61-43.48-7.51-210.51,112.24-346.43,29-32.86,84.1-96,168.76-116C2299,2596.7,2534.46,2839.9,2548.65,2914.3Z"/><path class="cls-36" d="M2644.57,2851.18c10.58,46.53-9.06,96.49-37.94,125.7-64.12,64.83-189.69,43.45-265.75,8.52-92.54-42.49-107.59-103-146.94-92.85-61.14,15.74-35.29,164.87-154.15,270.47a337.49,337.49,0,0,1-50.91,37.3l-53.32-29.27c-3.13-100.92,15.91-179.4,32.23-229.07,18.7-57,35.46-108,82.09-153.85,57.94-57,127.07-71.62,166.68-79.47C2384.12,2675.42,2617.06,2730.3,2644.57,2851.18Z"/><polygon class="cls-37" points="2123.22 2698.18 2563.03 2691.61 2446.08 2748.05 2122.1 2726.85 2123.22 2698.18"/><path class="cls-38" d="M2578.55,2703.3h0a19.59,19.59,0,0,1-12.88,18.4l-140.54,55.09-.64-38.2,138.54-47A12.16,12.16,0,0,1,2578.55,2703.3Z"/><path class="cls-39" d="M2515.76,2685.65c2.7-.61-13.15-32.19-25.59-28.54s-73.29,38.91-78.83,53.43l-5.53,14.52s26.55,2.08,43-3.45S2493.81,2690.54,2515.76,2685.65Z"/><path class="cls-40" d="M2412.83,2470.6l31,282.27c1.07,9.74-12.57,24.25-22.36,23.79l-454.78-27.92a15.94,15.94,0,0,1-15-13.23l-57.08-272.62c-1.71-9.92,16.13-20.17,26.19-19.89l476.58,13.4A16,16,0,0,1,2412.83,2470.6Z"/><path class="cls-41" d="M2402.43,2478.83l31,282.27a15.94,15.94,0,0,1-16.6,17.67L1956.29,2757a16,16,0,0,1-15-13.23l-47-273.87a16,16,0,0,1,16.16-18.64l476.59,13.4A16,16,0,0,1,2402.43,2478.83Z"/><path class="cls-42" d="M2132,2690.82c40.22-17,26-49.54,73.51-90,62.64-53.43,126.5-30.26,148.85-71.67,7-12.9,10.29-33-1.84-65.45l34.51,1a16,16,0,0,1,15.4,14.2l31,282.27a15.94,15.94,0,0,1-16.6,17.67L1956.29,2757a16,16,0,0,1-15-13.23l-6.49-37.79a173.75,173.75,0,0,1,50.15-18.8C2052.56,2673.44,2085.71,2710.45,2132,2690.82Z"/><path class="cls-43" d="M2487.23,2095.34a545.6,545.6,0,0,0,9.74,109c5.64,29,9.71,36.53,14.89,42.62,7.81,9.16,19.64,16.84,86.5,33.42,36.38,9,41.06,8.77,41.86,12.38,3.92,17.62-95.28,77.64-197.77,63.17-62.72-8.85-119.79-44.64-116.29-63.43s66.18-8.76,84.85-43c13-23.8-1.57-57.59-18.78-85.57C2408.9,2132.7,2470.56,2126.57,2487.23,2095.34Z"/><path class="cls-44" d="M2355.61,2154.66c-19.28-15.3-28.82-48.29-17.78-73.59,9.5-21.77,31.18-30.16,44.16-35.2,37.61-14.57,90.75-11.13,117.07,20.13,15.59,18.53,5.22,68.15,3.86,76.94-1.54,9.94-7.75,14.83-12.48,23.28-6.55,11.71-16.75,30.27-33.24,61.16a165.34,165.34,0,0,0-15.66-24c-2.65-3.37-13.18-16.46-26.47-26.13C2388.44,2157.86,2373.89,2169.16,2355.61,2154.66Z"/><path class="cls-45" d="M2484.52,2197.9s-14.6,48.46-66.22,58.38c-46.21,8.88-79.41-91.3-56-120.49,7.81-9.73,26.43-17.78,43.34-17.47,10,.19,14.16,3.23,30.49,3.22,15.08,0,18.65-2.62,23.85-.14,6.49,3.09,13.26,13.07,12.12,45.18,6.39-11,15.92-17.11,24.2-15.55a16,16,0,0,1,7.58,4.32C2513.25,2165.33,2506.49,2183,2484.52,2197.9Z"/><path class="cls-46" d="M2460.42,2114.77c-1.76,2.2,7.07,8.63,10.58,20.08,6.82,22.2-8.89,55.09-31.49,63.42-13.36,4.92-19.29-2.36-42.58,1.15a107.22,107.22,0,0,0-32.57,10.52c-.71,26.49,12.39,49.31,31.82,56.42,20.93,7.65,41.64-5.69,50.3-11.27,5.79-3.73,24.36-15.65,30.12-37,6-22.28-7.89-31.15,1.37-47.57,4.67-8.28,12.33-13.34,17.17-28.28a63.67,63.67,0,0,0,2.36-9.83C2482.54,2123,2463,2111.57,2460.42,2114.77Z"/><path class="cls-47" d="M2383.23,2214.78s11.15,2.57,27.86-2.8c.81-.27,1.79-.26,2,.14.81,1.51-8.19,11.55-19,11.35-7.64-.15-14.93-5.45-14.42-7.41C2379.94,2215.23,2381.57,2214.91,2383.23,2214.78Z"/><path class="cls-48" d="M2750,957.54c0,106.19-148.76,300-216.09,382.2a41.89,41.89,0,0,1-64.82,0c-67.32-82.25-216.08-276-216.08-382.2,0-137.24,111.25-248.49,248.49-248.49S2750,820.3,2750,957.54Z"/><circle class="cls-7" cx="2501.52" cy="957.54" r="138.59" transform="translate(55.59 2049.3) rotate(-45)"/><g class="cls-49"><path class="cls-50" d="M2500.42,1237.72c15.77-103.83,84.33-137.06,72.56-235.09-13.57-113.06-113.68-143.18-116.09-243.8a159.59,159.59,0,0,1,6-46.78C2344,730.62,2253,833.45,2253,957.54c0,106.19,148.76,300,216.08,382.2a41.76,41.76,0,0,0,38.78,14.86C2495.84,1309.13,2495.48,1270.3,2500.42,1237.72Z"/></g><circle class="cls-51" cx="2501.52" cy="1460.64" r="50.79" transform="translate(-300.15 2196.65) rotate(-45)"/><path class="cls-52" d="M1703,1787.83c0,106.19-148.76,300-216.08,382.2a41.89,41.89,0,0,1-64.82,0c-67.33-82.25-216.09-276-216.09-382.2,0-137.24,111.26-248.49,248.5-248.49S1703,1650.59,1703,1787.83Z"/><circle class="cls-7" cx="1454.52" cy="1787.83" r="138.59" transform="translate(-838.17 1552.14) rotate(-45)"/><g class="cls-49"><path class="cls-53" d="M1453.42,2068c15.76-103.83,84.33-137.06,72.56-235.09-13.57-113.06-113.68-143.18-116.1-243.8a159.59,159.59,0,0,1,6-46.78C1297,1560.91,1206,1663.75,1206,1787.83c0,106.19,148.76,300,216.09,382.2a41.74,41.74,0,0,0,38.77,14.86C1448.84,2139.42,1448.47,2100.59,1453.42,2068Z"/></g><circle class="cls-54" cx="1454.52" cy="2290.93" r="50.79" transform="translate(-968.59 3512.63) rotate(-84.35)"/><circle class="cls-55" cx="2104.34" cy="2340.3" r="25.01" transform="translate(-992.75 2900) rotate(-58.28)"/><path class="cls-56" d="M2104.34,2130.7a208.73,208.73,0,0,0-136.72,50.75,17,17,0,0,0-1,25l.71.7a16.91,16.91,0,0,0,23,.93,174.5,174.5,0,0,1,228.13,0,16.91,16.91,0,0,0,23-.93l.71-.7a17,17,0,0,0-1-25A208.74,208.74,0,0,0,2104.34,2130.7Z"/><path class="cls-57" d="M2104.34,2188.92a150.65,150.65,0,0,0-95.22,33.74,17,17,0,0,0-1.19,25.13l.12.12a17.1,17.1,0,0,0,22.88,1,117.11,117.11,0,0,1,146.83,0,17.1,17.1,0,0,0,22.88-1l.12-.12a17,17,0,0,0-1.19-25.13A150.66,150.66,0,0,0,2104.34,2188.92Z"/><path class="cls-58" d="M2049.58,2289.44a18.22,18.22,0,0,0,23,2.08,58.25,58.25,0,0,1,63.61,0,18.22,18.22,0,0,0,23-2.08l.08-.08a17,17,0,0,0-2.45-26.08,93.11,93.11,0,0,0-104.79,0,17,17,0,0,0-2.45,26.08Z"/><path class="cls-59" d="M1860.13,845.7a25,25,0,1,1-25-25A25,25,0,0,1,1860.13,845.7Z"/><path class="cls-60" d="M1835.13,636.1a208.74,208.74,0,0,0-136.72,50.75,17.05,17.05,0,0,0-1.05,25l.71.71a16.92,16.92,0,0,0,23,.92,174.52,174.52,0,0,1,228.12,0,16.91,16.91,0,0,0,23-.92l.71-.71a17,17,0,0,0-1-25A208.76,208.76,0,0,0,1835.13,636.1Z"/><path class="cls-61" d="M1835.13,694.32a150.62,150.62,0,0,0-95.22,33.75,17,17,0,0,0-1.2,25.12l.13.12a17.09,17.09,0,0,0,22.87,1,117.11,117.11,0,0,1,146.83,0,17.1,17.1,0,0,0,22.88-1l.12-.12a17,17,0,0,0-1.19-25.12A150.66,150.66,0,0,0,1835.13,694.32Z"/><path class="cls-62" d="M1780.36,794.84a18.21,18.21,0,0,0,23,2.08,58.3,58.3,0,0,1,63.61,0,18.21,18.21,0,0,0,23-2.08l.08-.08a17,17,0,0,0-2.45-26.07,93.1,93.1,0,0,0-104.78,0,17,17,0,0,0-2.46,26.07Z"/></g></g></svg>