<svg id="visual" viewBox="0 0 960 540" width="960" height="540" xmlns="http://www.w3.org/2000/svg" xmlns:xlink="http://www.w3.org/1999/xlink" version="1.1"><g><g transform="translate(50 20)"><path d="M97.4 -55.7C117.7 -20.9 120 24.8 100.7 58.9C81.5 93.1 40.7 115.6 2.1 114.4C-36.6 113.2 -73.2 88.3 -93 53.8C-112.8 19.3 -115.8 -24.7 -97.6 -58.2C-79.3 -91.7 -39.6 -114.8 -0.6 -114.5C38.5 -114.1 77 -90.4 97.4 -55.7Z" fill="none" stroke="#ffbf71" stroke-width="4"></path></g><g transform="translate(400 300)"><path d="M47.3 -27.6C57.3 -10.1 58.5 12.2 49.2 28.5C39.8 44.9 19.9 55.3 -0.3 55.4C-20.4 55.6 -40.9 45.5 -50.8 28.8C-60.8 12.1 -60.2 -11.2 -50 -28.9C-39.8 -46.5 -19.9 -58.6 -0.6 -58.3C18.7 -57.9 37.4 -45.1 47.3 -27.6Z" fill="none" stroke="#ffbf71" stroke-width="4"></path></g><g transform="translate(663 474)"><path d="M39.5 -22.5C47.7 -8.7 48.3 9.8 40.4 23.4C32.6 37.1 16.3 45.9 0.4 45.7C-15.6 45.5 -31.2 36.2 -38.9 22.7C-46.7 9.1 -46.6 -8.9 -38.8 -22.5C-31 -36 -15.5 -45.2 0.1 -45.3C15.7 -45.4 31.4 -36.3 39.5 -22.5Z" stroke="#ffbf71" fill="none" stroke-width="4"></path></g><g transform="translate(876 229)"><path d="M76 -42.8C91 -18 90.4 16.9 75.1 42.9C59.9 69 29.9 86.1 -0.3 86.2C-30.6 86.4 -61.1 69.7 -75.5 44.2C-89.9 18.7 -88.1 -15.6 -72.8 -40.6C-57.5 -65.6 -28.8 -81.5 0.9 -82C30.5 -82.5 61.1 -67.7 76 -42.8Z" stroke="#ffbf71" fill="none" stroke-width="4"></path></g><g transform="translate(13 419)"><path d="M75.5 -42.8C90.3 -17.9 89.7 16.7 74.5 42.1C59.3 67.5 29.7 83.7 0.5 83.4C-28.7 83.2 -57.5 66.5 -72.7 41C-87.9 15.6 -89.6 -18.5 -75.2 -43.1C-60.9 -67.7 -30.4 -82.7 0 -82.7C30.3 -82.7 60.7 -67.6 75.5 -42.8Z" stroke="#ffbf71" fill="none" stroke-width="4"></path></g><g transform="translate(530 20)"><path d="M74.1 -43.5C89.9 -15.5 92.2 19.5 77.6 45.3C63 71.1 31.5 87.7 1 87.1C-29.4 86.5 -58.8 68.7 -74.9 42.1C-90.9 15.4 -93.6 -20.1 -78.9 -47.5C-64.2 -74.8 -32.1 -94 -1.5 -93.2C29.2 -92.3 58.4 -71.4 74.1 -43.5Z" stroke="#ffbf71" fill="none" stroke-width="4"></path></g><g transform="translate(954 524)"><path d="M79.9 -46C96.5 -17.4 98.1 20.1 82.3 48.2C66.5 76.4 33.2 95.1 0.8 94.7C-31.7 94.3 -63.4 74.6 -79 46.6C-94.5 18.6 -93.9 -17.6 -78.1 -45.8C-62.2 -74 -31.1 -94 0.3 -94.2C31.7 -94.3 63.3 -74.6 79.9 -46Z" stroke="#ffbf71" fill="none" stroke-width="4"></path></g></g></svg>