<svg id="Layer_1" data-name="Layer 1" xmlns="http://www.w3.org/2000/svg" xmlns:xlink="http://www.w3.org/1999/xlink" viewBox="0 0 1024 1024"><defs><style>.cls-1{fill:url(#linear-gradient);}</style><linearGradient id="linear-gradient" x1="145.88" y1="108.99" x2="766.8" y2="782.76" gradientUnits="userSpaceOnUse"><stop offset="0.15" stop-color="#fe8c00"/><stop offset="1" stop-color="#f83600"/></linearGradient><symbol id="hub_one" data-name="hub one" viewBox="0 0 948.54 939.6"><path class="cls-1" d="M504.79,444.68h0a10.37,10.37,0,0,0,10.48-10.37V112.59A36.79,36.79,0,0,1,560,76.66C738.36,116,872.24,275.31,872.24,465.33c0,219.78-179.08,398.52-399,398C253,862.74,74.36,682,76.32,461.73c1.37-153.42,90-286.39,218.56-351.59a102.55,102.55,0,0,0,56.39-91.39h0A8.79,8.79,0,0,0,340,10.33a474.52,474.52,0,0,0-50.31,892,474.39,474.39,0,0,0,369.24-874s-37.24-15.19-91-26.07c-69.55-14.07-134.6,38.92-134.6,109.88V372.43A72.26,72.26,0,0,0,504.79,444.68Z"/></symbol></defs><title>hubone_logo</title><use width="948.54" height="939.6" transform="translate(37.73 46.67)" xlink:href="#hub_one"/></svg>