<svg id="Layer_1" data-name="Layer 1" xmlns="http://www.w3.org/2000/svg" xmlns:xlink="http://www.w3.org/1999/xlink" viewBox="0 0 1024 1024"><defs><style>.cls-1{fill:url(#linear-gradient);}</style><linearGradient id="linear-gradient" x1="183.61" y1="155.66" x2="804.53" y2="829.43" gradientUnits="userSpaceOnUse"><stop offset="0.15" stop-color="#fe8c00"/><stop offset="1" stop-color="#f83600"/></linearGradient></defs><title>hubone_logo</title><path class="cls-1" d="M542.52,491.35h0A10.37,10.37,0,0,0,553,481V159.26a36.79,36.79,0,0,1,44.71-35.93C776.09,162.63,910,322,910,512c0,219.78-179.08,398.52-399,398-220.25-.56-398.9-181.32-396.94-401.56C115.41,355,204,222,332.61,156.81A102.55,102.55,0,0,0,389,65.42h0A8.79,8.79,0,0,0,377.69,57,473.88,473.88,0,1,0,696.62,75s-37.25-15.19-91-26.07C536.05,34.87,471,87.86,471,158.82V419.1A72.26,72.26,0,0,0,542.52,491.35Z"/></svg>