<svg id="Layer_1" data-name="Layer 1" xmlns="http://www.w3.org/2000/svg" xmlns:xlink="http://www.w3.org/1999/xlink" viewBox="0 0 4053.72 1024"><defs><style>.cls-1{fill:url(#linear-gradient);}.cls-2{fill:#333;}.cls-3{fill:url(#linear-gradient-2);}</style><linearGradient id="linear-gradient" x1="145.88" y1="108.99" x2="766.8" y2="782.76" gradientUnits="userSpaceOnUse"><stop offset="0.15" stop-color="#fe8c00"/><stop offset="1" stop-color="#f83600"/></linearGradient><linearGradient id="linear-gradient-2" x1="2588.16" y1="207.72" x2="3827.35" y2="1008.3" xlink:href="#linear-gradient"/><symbol id="hub_one" data-name="hub one" viewBox="0 0 948.54 939.6"><path class="cls-1" d="M504.79,444.68h0a10.37,10.37,0,0,0,10.48-10.37V112.59A36.79,36.79,0,0,1,560,76.66C738.36,116,872.24,275.31,872.24,465.33c0,219.78-179.08,398.52-399,398C253,862.74,74.36,682,76.32,461.73c1.37-153.42,90-286.39,218.56-351.59a102.55,102.55,0,0,0,56.39-91.39h0A8.79,8.79,0,0,0,340,10.33a474.52,474.52,0,0,0-50.31,892,474.39,474.39,0,0,0,369.24-874s-37.24-15.19-91-26.07c-69.55-14.07-134.6,38.92-134.6,109.88V372.43A72.26,72.26,0,0,0,504.79,444.68Z"/></symbol></defs><title>hubone_logo_full</title><use width="948.54" height="939.6" transform="translate(152.48 189.48) scale(0.69)" xlink:href="#hub_one"/><path class="cls-2" d="M1330.65,275.89v494a16.92,16.92,0,0,1-16.91,16.92h0a16.92,16.92,0,0,1-16.92-16.92V548.09a16.92,16.92,0,0,0-16.92-16.91H1005.43a16.91,16.91,0,0,0-16.91,16.91V769.92a16.93,16.93,0,0,1-16.92,16.92h0a16.92,16.92,0,0,1-16.92-16.92v-494A16.91,16.91,0,0,1,971.6,259h0a16.92,16.92,0,0,1,16.92,16.92V485.68a16.91,16.91,0,0,0,16.91,16.92H1279.9a16.92,16.92,0,0,0,16.92-16.92V275.89A16.91,16.91,0,0,1,1313.74,259h0A16.91,16.91,0,0,1,1330.65,275.89Z"/><path class="cls-2" d="M1799.87,395.07V770.3a16.55,16.55,0,0,1-16.55,16.54h-.75A16.55,16.55,0,0,1,1766,770.3V738.35c0-9.63-12.4-13.68-18-5.82a131.9,131.9,0,0,1-39.54,36.64q-40.24,24.44-92.12,24.44-72.95,0-119.18-44.74T1451,616.15V395.07a16.55,16.55,0,0,1,16.54-16.54h0a16.55,16.55,0,0,1,16.55,16.54V613.89q0,72.95,36.84,111.66t100,38.73q66.16,0,105.65-42.11T1766,597.35V395.07a16.55,16.55,0,0,1,16.54-16.54h.75A16.55,16.55,0,0,1,1799.87,395.07Z"/><path class="cls-2" d="M2020.93,404.85q45.12-31.59,109-31.59,57.14,0,101.89,25.57t69.93,72.94Q2327,519.14,2327,582.31t-25.19,110.91q-25.2,47.76-69.93,73.69T2130,792.85q-63.93,0-109.41-31.58a173.78,173.78,0,0,1-42.22-40.85c-6.7-9.24-21.32-4.42-21.32,7v42.51a16.93,16.93,0,0,1-16.92,16.92h0a16.92,16.92,0,0,1-16.92-16.92V247.31a16.92,16.92,0,0,1,16.92-16.92h0A16.93,16.93,0,0,1,1957,247.31v192c0,11.49,14.67,16.15,21.43,6.84A177.93,177.93,0,0,1,2020.93,404.85Zm250.4,81.21q-21.06-40.6-59-62t-87.6-21.43q-47.37,0-85.72,22.18t-60.16,63.17q-21.81,41-21.8,94.37,0,54.13,21.8,95.12T2039,740.59q38.36,22.2,85.72,22.19,49.64,0,87.6-21.81t59-62.41q21-40.6,21.06-96.25T2271.33,486.06Z"/><path class="cls-3" d="M2528.12,757.89q-61.3-34.21-97-95.5t-35.72-138q0-76.71,35.72-137.61a254.1,254.1,0,0,1,97-95.12q61.27-34.21,134.22-34.22,73.68,0,135,34.22a251.66,251.66,0,0,1,96.62,95.12q35.34,60.92,35.35,137.61t-35.35,138q-35.36,61.29-96.62,95.5t-135,34.21Q2589.4,792.1,2528.12,757.89ZM2754.83,694q40.61-23.69,63.54-67.67t22.94-101.89q0-57.9-22.94-101.52T2754.83,356q-40.6-23.3-92.49-23.31T2569.85,356q-40.6,23.31-63.54,66.92t-22.93,101.52q0,57.92,22.93,101.89T2569.85,694q40.61,23.68,92.49,23.69T2754.83,694Zm555.32-307.92q38.71,20.29,60.53,60.15t21.81,96.25V772.63a14.21,14.21,0,0,1-14.21,14.21h-56.56a14.21,14.21,0,0,1-14.2-14.21V555.24q0-55.65-27.83-85.35t-75.94-29.7q-48.14,0-76.33,29.7t-28.2,85.35V772.63a14.21,14.21,0,0,1-14.2,14.21h-57.31a14.21,14.21,0,0,1-14.21-14.21V386.72a14.21,14.21,0,0,1,14.21-14.21H3085a14.21,14.21,0,0,1,14.2,14.21h0A14.2,14.2,0,0,0,3122,398a151.41,151.41,0,0,1,31-18,172.08,172.08,0,0,1,69.55-14.28Q3271.43,365.75,3310.15,386.05Zm550.29,225.58H3585.1a20,20,0,0,0-19.36,25,109.41,109.41,0,0,0,32.77,54.68q33.07,30.09,81.21,30.08,63.26,0,92.56-48.41a19.86,19.86,0,0,1,17-9.49h50.63a20,20,0,0,1,17.74,29.23q-19.74,37.72-55.75,64.39-49.24,36.48-122.19,36.47-59.4,0-106.4-26.7t-73.69-75.19q-26.7-48.51-26.7-112.42t26-112.42q25.93-48.49,72.94-74.82t107.9-26.31q58.65,0,104.52,25.56a180.73,180.73,0,0,1,71.44,71.81q25.56,46.25,25.57,106.4,0,12.5-.87,23.69A20,20,0,0,1,3860.44,611.63Zm-91-69.18a20,20,0,0,0,19.53-24.3,94,94,0,0,0-31.05-51.64q-33.1-28.58-82-28.58-44.37,0-75.94,28.2-22.47,20.06-32,50.19a20,20,0,0,0,19,26.13Z"/></svg>